<?xml version="1.0" encoding="UTF-8"?>
<svg xmlns="http://www.w3.org/2000/svg" xmlns:xlink="http://www.w3.org/1999/xlink" width="48pt" height="48pt" viewBox="0 0 48 48" version="1.1">
<g id="surface6345376">
<path style=" stroke:none;fill-rule:nonzero;fill:rgb(70.980392%,0%,0%);fill-opacity:1;" d="M 24 4 C 12.953125 4 4 12.953125 4 24 C 4 35.046875 12.953125 44 24 44 C 35.046875 44 44 35.046875 44 24 C 44 12.953125 35.046875 4 24 4 Z M 24 4 "/>
<path style=" stroke:none;fill-rule:nonzero;fill:rgb(92.54902%,92.54902%,92.54902%);fill-opacity:1;" d="M 40.078125 24 C 40.078125 21.699219 37.710938 19.691406 33.980469 18.402344 C 34.695312 14.621094 34.089844 11.628906 32.039062 10.476562 C 29.988281 9.328125 27.015625 10.316406 24 12.808594 C 20.988281 10.3125 18.011719 9.328125 15.964844 10.476562 C 13.910156 11.628906 13.304688 14.621094 14.023438 18.402344 C 10.292969 19.691406 7.925781 21.699219 7.925781 24 C 7.925781 26.300781 10.289062 28.304688 14.023438 29.59375 C 13.304688 33.378906 13.914062 36.371094 15.964844 37.523438 C 18.011719 38.671875 20.988281 37.683594 24 35.191406 C 27.015625 37.683594 29.988281 38.675781 32.039062 37.523438 C 34.089844 36.371094 34.695312 33.378906 33.980469 29.59375 C 37.710938 28.304688 40.078125 26.300781 40.078125 24 Z M 31.308594 11.707031 C 32.671875 12.46875 33.171875 14.796875 32.597656 17.976562 C 31.222656 17.601562 29.703125 17.316406 28.082031 17.132812 C 27.109375 15.859375 26.09375 14.726562 25.070312 13.761719 C 27.621094 11.6875 29.945312 10.941406 31.308594 11.707031 Z M 17.671875 27.550781 C 18.03125 28.152344 18.40625 28.730469 18.785156 29.292969 C 17.679688 29.121094 16.648438 28.910156 15.710938 28.648438 C 15.945312 27.730469 16.269531 26.753906 16.671875 25.738281 C 16.984375 26.339844 17.3125 26.941406 17.671875 27.550781 Z M 15.710938 19.351562 C 16.648438 19.089844 17.679688 18.875 18.789062 18.707031 C 18.40625 19.269531 18.03125 19.84375 17.671875 20.449219 C 17.3125 21.054688 16.984375 21.664062 16.671875 22.265625 C 16.269531 21.246094 15.945312 20.269531 15.710938 19.351562 Z M 17.425781 24 C 17.863281 23.074219 18.363281 22.128906 18.9375 21.160156 C 19.511719 20.191406 20.109375 19.300781 20.714844 18.46875 C 21.757812 18.375 22.851562 18.320312 24 18.320312 C 25.148438 18.320312 26.246094 18.375 27.285156 18.46875 C 27.894531 19.300781 28.488281 20.195312 29.0625 21.160156 C 29.636719 22.128906 30.136719 23.074219 30.574219 24 C 30.140625 24.925781 29.640625 25.875 29.0625 26.839844 C 28.488281 27.808594 27.894531 28.699219 27.289062 29.53125 C 26.246094 29.625 25.148438 29.675781 24 29.675781 C 22.851562 29.675781 21.753906 29.625 20.710938 29.53125 C 20.105469 28.703125 19.511719 27.804688 18.9375 26.839844 C 18.363281 25.871094 17.863281 24.921875 17.425781 24 Z M 30.328125 27.546875 C 30.6875 26.945312 31.015625 26.34375 31.328125 25.742188 C 31.730469 26.753906 32.054688 27.730469 32.289062 28.648438 C 31.355469 28.910156 30.320312 29.125 29.214844 29.292969 C 29.597656 28.730469 29.96875 28.152344 30.328125 27.546875 Z M 30.328125 20.453125 C 29.96875 19.847656 29.59375 19.265625 29.214844 18.707031 C 30.320312 18.875 31.355469 19.089844 32.292969 19.347656 C 32.054688 20.269531 31.730469 21.246094 31.328125 22.261719 C 31.015625 21.660156 30.691406 21.054688 30.328125 20.453125 Z M 26.109375 16.96875 C 25.421875 16.929688 24.71875 16.902344 24 16.902344 C 23.28125 16.902344 22.578125 16.929688 21.886719 16.96875 C 22.589844 16.121094 23.300781 15.359375 24 14.703125 C 24.699219 15.359375 25.40625 16.121094 26.109375 16.96875 Z M 16.691406 11.707031 C 18.054688 10.945312 20.378906 11.6875 22.929688 13.761719 C 21.90625 14.726562 20.894531 15.859375 19.917969 17.132812 C 18.296875 17.316406 16.777344 17.601562 15.402344 17.976562 C 14.828125 14.796875 15.332031 12.46875 16.691406 11.707031 Z M 9.386719 24 C 9.386719 22.472656 11.210938 20.886719 14.335938 19.777344 C 14.683594 21.125 15.1875 22.542969 15.835938 24 C 15.1875 25.457031 14.683594 26.875 14.335938 28.21875 C 11.210938 27.109375 9.386719 25.527344 9.386719 24 Z M 16.691406 36.292969 C 15.332031 35.527344 14.828125 33.203125 15.402344 30.019531 C 16.777344 30.398438 18.296875 30.683594 19.917969 30.867188 C 20.894531 32.140625 21.90625 33.273438 22.929688 34.238281 C 20.378906 36.3125 18.054688 37.054688 16.691406 36.292969 Z M 24 33.296875 C 23.300781 32.640625 22.589844 31.878906 21.886719 31.03125 C 22.578125 31.070312 23.28125 31.097656 24 31.097656 C 24.722656 31.097656 25.421875 31.070312 26.113281 31.03125 C 25.410156 31.878906 24.699219 32.640625 24 33.296875 Z M 31.308594 36.292969 C 29.949219 37.058594 27.621094 36.3125 25.070312 34.238281 C 26.097656 33.273438 27.109375 32.140625 28.085938 30.867188 C 29.707031 30.683594 31.226562 30.398438 32.597656 30.019531 C 33.171875 33.203125 32.671875 35.53125 31.308594 36.292969 Z M 33.667969 28.21875 C 33.316406 26.875 32.8125 25.457031 32.164062 24 C 32.8125 22.542969 33.316406 21.125 33.667969 19.777344 C 36.789062 20.886719 38.617188 22.472656 38.617188 24 C 38.617188 25.527344 36.789062 27.113281 33.667969 28.21875 Z M 33.667969 28.21875 "/>
<path style=" stroke:none;fill-rule:nonzero;fill:rgb(23.137255%,67.45098%,100%);fill-opacity:1;" d="M 24 22 C 22.894531 22 22 22.894531 22 24 C 22 25.105469 22.894531 26 24 26 C 25.105469 26 26 25.105469 26 24 C 26 22.894531 25.105469 22 24 22 Z M 24 22 "/>
</g>
</svg>
